<svg xmlns="http://www.w3.org/2000/svg" width="24" height="24" viewBox="0 0 24 24">
    <g fill="none" fill-rule="evenodd">
        <g fill="#FFF" fill-rule="nonzero">
            <g>
                <path d="M23.305 7.652L17.175 1.5c-.45-.448-1.06-.7-1.694-.7-.633-.001-1.24.25-1.687.7l-1.665 1.673-.126.13-1.79-1.803C9.762 1.052 9.154.8 8.52.8c-.634 0-1.242.252-1.69.7L.7 7.653c-.935.935-.935 2.45 0 3.386l1.774 1.786-.21.21c-.617.618-.803 1.547-.472 2.357.332.809 1.116 1.341 1.99 1.35.006.568.234 1.11.635 1.513.396.402.935.63 1.5.634.011 1.192.98 2.152 2.173 2.152 0 1.2.973 2.174 2.173 2.174.575-.003 1.125-.233 1.53-.64l.9-.9.026-.025.926-.957c.034-.03.063-.065.087-.104.137-.146.249-.313.33-.496l.3.296c.41.417.968.652 1.552.652 1.192 0 2.162-.96 2.174-2.152.568 0 1.113-.226 1.512-.63.404-.402.634-.947.64-1.517 1.2 0 2.173-.973 2.173-2.173.004-.577-.227-1.131-.639-1.535l-.209-.209 1.74-1.795c.926-.935.926-2.442 0-3.377zm-19.5 7.785c-.232 0-.454-.092-.618-.257-.163-.163-.255-.384-.255-.615 0-.23.092-.452.255-.615l.67-.647 1.191-1.2c.34-.337.887-.337 1.226 0 .165.164.258.388.256.621.002.232-.09.454-.252.618l-1.847 1.843c-.167.165-.392.256-.626.252zm2.76 1.9c-.34.337-.887.337-1.226 0-.163-.165-.253-.387-.252-.618.002-.23.092-.451.252-.617l1.848-1.839c.162-.163.382-.255.613-.256.231 0 .453.092.617.256.163.163.255.385.255.615 0 .231-.092.452-.255.615l-1.852 1.844zm1.526 2.399c-.231.001-.453-.09-.617-.252-.164-.163-.255-.384-.255-.615 0-.23.091-.452.255-.615L9.32 16.41c.34-.337.887-.337 1.226 0 .163.162.255.382.256.613.009.231-.076.456-.234.626L8.72 19.497c-.17.161-.396.247-.63.239zm4.616.048l-.908.908-.926.94c-.343.311-.87.3-1.199-.028-.328-.327-.342-.854-.031-1.199l1.847-1.843c.163-.163.384-.255.615-.255.231 0 .452.092.615.255.09.087.16.195.2.313.035.098.053.201.052.305 0 .226-.09.442-.247.604h-.018zm8.107-4.6c-.163.164-.384.256-.615.256-.23 0-.452-.092-.615-.255l-3.377-3.386-.609-.613c-.256-.252-.666-.252-.922 0-.123.121-.192.287-.192.46 0 .174.07.34.192.461l.618.617 3.377 3.387c.162.16.255.38.257.608.001.233-.091.457-.257.622-.339.337-.886.337-1.226 0l-3.999-4c-.12-.125-.287-.196-.46-.196-.174 0-.34.071-.461.197-.123.121-.193.287-.193.46 0 .174.07.34.193.461l3.999 4c.337.339.337.886 0 1.225-.163.164-.384.255-.615.255-.231 0-.452-.091-.615-.255l-.683-.678-.495-.495s0-.026-.035-.026c-.106-.24-.253-.46-.435-.648-.403-.402-.948-.63-1.517-.635-.017-1.188-.985-2.143-2.173-2.143 0-1.192-.96-2.161-2.152-2.173-.009-.875-.541-1.659-1.35-1.99-.81-.331-1.739-.145-2.358.473l-.7.73-1.79-1.791c-.422-.428-.422-1.115 0-1.543l6.146-6.134c.433-.405 1.106-.405 1.539 0l1.79 1.796-1.738 1.738-.774.761c-.742.746-.963 1.865-.56 2.837.403.972 1.35 1.607 2.403 1.61.69.002 1.353-.274 1.839-.765l2.512-2.508 5.408 5.399.648.652c.16.162.25.38.252.608.001.233-.091.457-.257.622zm1.587-5.076l-1.795 1.795-4.86-4.864-.461-.461-.03-.026-.027-.03c-.12-.126-.286-.197-.46-.197-.174 0-.34.071-.461.196l-2.973 2.97c-.244.243-.573.38-.918.382-.72 0-1.304-.584-1.304-1.304 0-.344.137-.673.379-.917l.743-.74c.01-.006.02-.015.026-.025l4.46-4.452c.2-.206.473-.324.76-.33.292.005.57.123.774.33l6.147 6.134c.42.426.42 1.112 0 1.539z" transform="translate(-688 -2975) translate(688 2975)"/>
            </g>
        </g>
    </g>
</svg>
