<svg xmlns="http://www.w3.org/2000/svg" width="24" height="24" viewBox="0 0 24 24">
    <g fill="none" fill-rule="evenodd">
        <g fill="#FFF">
            <g>
                <path d="M20.67 21.328c-4.875-4.297-12.808-4.297-17.683 0l-1.587-1.8c5.75-5.07 15.107-5.07 20.857 0l-1.587 1.8zM11.829 5c-1.774 0-3.216 1.443-3.216 3.216 0 1.773 1.442 3.216 3.216 3.216 1.773 0 3.216-1.443 3.216-3.216C15.045 6.443 13.602 5 11.829 5m0 8.832c-3.097 0-5.616-2.52-5.616-5.616 0-3.097 2.52-5.616 5.616-5.616 3.096 0 5.616 2.52 5.616 5.616 0 3.097-2.52 5.616-5.616 5.616" transform="translate(-230 -1272) translate(230 1272)"/>
            </g>
        </g>
    </g>
</svg>
