<svg xmlns="http://www.w3.org/2000/svg" width="30" height="30" viewBox="0 0 30 30">
    <g fill="none" fill-rule="evenodd" opacity=".6">
        <g fill="#FFF" fill-rule="nonzero">
            <g>
                <g>
                    <path d="M9.898 26.75c10.378 0 16.054-8.657 16.054-16.164 0-.246 0-.491-.017-.735 1.104-.804 2.057-1.8 2.815-2.94-1.03.459-2.122.76-3.24.893 1.177-.71 2.059-1.826 2.48-3.142-1.108.662-2.32 1.128-3.583 1.379-1.749-1.873-4.528-2.33-6.778-1.118-2.251 1.213-3.414 3.795-2.837 6.3-4.536-.23-8.763-2.387-11.628-5.936-1.498 2.596-.733 5.916 1.747 7.584-.898-.027-1.776-.271-2.561-.712v.072c0 2.705 1.894 5.034 4.527 5.57-.831.228-1.703.26-2.548.097.739 2.314 2.857 3.9 5.271 3.945-1.998 1.581-4.466 2.44-7.007 2.437-.449 0-.897-.028-1.343-.082 2.58 1.667 5.582 2.552 8.648 2.548" transform="translate(-230 -5005) translate(0 4793) translate(230 212)"/>
                </g>
            </g>
        </g>
    </g>
</svg>
