<svg xmlns="http://www.w3.org/2000/svg" width="120" height="120" viewBox="0 0 120 120">
    <g fill="none" fill-rule="evenodd">
        <g fill="#FFF">
            <path d="M60.5 13L31.315 42.185 42.05 52.92 60.5 34.471 78.957 52.93l10.735-10.735L60.499 13zM13 60.499l10.735 10.734L34.47 60.498 23.735 49.763 13 60.5zm73.53.005L97.265 71.24 108 60.504 97.265 49.769 86.53 60.504zm-7.573 7.567l10.74 10.73-.004.005L60.499 108 31.315 78.816l-.016-.015L42.05 68.08 60.5 86.529 78.956 68.07zM60.5 49.601l10.893 10.893h-.004l.01.006-.006.006L60.5 71.399 49.616 60.515 49.6 60.5l2.847-2.849 8.051-8.05z"/>
        </g>
    </g>
</svg>
