<svg xmlns="http://www.w3.org/2000/svg" xmlns:xlink="http://www.w3.org/1999/xlink" width="120" height="120" viewBox="0 0 120 120">
    <defs>
        <path id="knhkmh8tga" d="M0 0.819L78.941 0.819 78.941 79.769 0 79.769z"/>
        <path id="wbkvul0jyc" d="M0 0.821L77.722 0.821 77.722 55.993 0 55.993z"/>
    </defs>
    <g fill="none" fill-rule="evenodd">
        <g>
            <g>
                <g transform="translate(20 20) translate(0 .412)">
                    <mask id="h3xxjh3ehb" fill="#fff">
                        <use xlink:href="#knhkmh8tga"/>
                    </mask>
                    <path fill="#FFF" d="M2.979 68.645c3.592 6.416 30.786 20.961 54.858.901C81.913 49.483 79.894 12.982 77.723 1.261 76.96 2.96 50.684 61.3 2.979 68.638M77.723 1.261c-.281-.123-29.394-4.139-58.17 14.616C1.69 27.547-.682 44.617.139 55.999 41.99 51.31 76.773 2.621 77.723 1.261" mask="url(#h3xxjh3ehb)"/>
                </g>
                <g transform="translate(20 20) translate(0 .412)">
                    <mask id="rjei8imcxd" fill="#fff">
                        <use xlink:href="#wbkvul0jyc"/>
                    </mask>
                    <path fill="#FFF" d="M77.722 1.26c-.281-.115-29.394-4.138-58.17 14.617C1.689 27.547-.682 44.615.138 55.993 41.99 51.31 76.772 2.621 77.722 1.261" mask="url(#rjei8imcxd)"/>
                </g>
            </g>
        </g>
    </g>
</svg>
