<svg width="16" height="17" viewBox="0 0 16 17" fill="none" xmlns="http://www.w3.org/2000/svg">
<path d="M14.6666 8.47064C14.6725 9.78916 14.2872 11.0798 13.5595 12.1793C12.8318 13.2789 11.7944 14.138 10.5784 14.6479C9.36251 15.1579 8.02266 15.2958 6.72834 15.0443C5.43401 14.7928 4.24334 14.1631 3.30688 13.2349C2.37042 12.3067 1.73024 11.1216 1.46729 9.82955C1.20434 8.5375 1.33043 7.19649 1.82962 5.9761C2.3288 4.75571 3.17867 3.71075 4.27174 2.97336C5.3648 2.23598 6.65199 1.83928 7.97051 1.83344C8.84599 1.82956 9.71366 1.99816 10.524 2.32961C11.3343 2.66107 12.0714 3.14888 12.6932 3.7652C13.315 4.38153 13.8093 5.11429 14.1479 5.92165C14.4865 6.72901 14.6628 7.59515 14.6666 8.47064Z" fill="#8DC63F"/>
<path d="M14.1667 8.47309C14.1727 9.69264 13.8169 10.8866 13.1443 11.9039C12.4717 12.9212 11.5125 13.7162 10.388 14.1884C9.26359 14.6605 8.02437 14.7886 6.82712 14.5564C5.62988 14.3242 4.52838 13.7422 3.66194 12.8839C2.7955 12.0256 2.20305 10.9297 1.95952 9.73471C1.71598 8.53972 1.8323 7.29934 2.29376 6.17046C2.75522 5.04158 3.54109 4.0749 4.55199 3.39269C5.56289 2.71048 6.75339 2.34339 7.97293 2.33783C9.60769 2.33064 11.1784 2.97285 12.3398 4.12332C13.5013 5.27378 14.1583 6.83834 14.1667 8.47309Z" fill="#F9E988"/>
<path d="M8.11352 2.73492C8.50547 2.66535 8.9066 2.66535 9.29854 2.73492C9.69426 2.79766 10.0768 2.92582 10.4304 3.11414C10.7821 3.30738 11.086 3.5697 11.3884 3.81559C11.6908 4.06149 11.9918 4.31318 12.2783 4.58854C12.5707 4.85959 12.8259 5.16824 13.0372 5.50641C13.2547 5.84193 13.433 6.20129 13.5686 6.57743C13.8261 7.33395 13.9155 8.14893 13.7869 8.92622H13.7488C13.6198 8.15569 13.4449 7.42139 13.1691 6.72284C13.0396 6.37171 12.8872 6.02943 12.713 5.6982C12.5313 5.36513 12.331 5.04255 12.113 4.73202C11.8914 4.41921 11.6198 4.14501 11.3092 3.92042C10.9961 3.69723 10.6362 3.55279 10.2879 3.41559C9.93961 3.27839 9.5942 3.13781 9.23091 3.03347C8.86763 2.92912 8.49854 2.85086 8.11304 2.77501L8.11352 2.73492Z" fill="white"/>
<path d="M11.1275 6.2967C10.6802 6.16723 10.2164 5.98365 9.74684 5.79815C9.71979 5.68027 9.61544 5.53341 9.40433 5.35418C9.09756 5.088 8.52124 5.09476 8.02317 5.21264C7.47341 5.08317 6.93041 5.03728 6.40916 5.16433C2.14587 6.33873 4.56326 9.20394 2.99805 12.0841C3.22075 12.5566 5.62124 15.3131 9.09467 14.5735C9.09467 14.5735 7.90674 11.7189 10.5874 10.3489C12.7618 9.23341 14.3328 7.16964 11.1275 6.2967Z" fill="#8BC53F"/>
<path d="M11.6541 8.17156C11.6544 8.22267 11.6395 8.27273 11.6114 8.31539C11.5832 8.35805 11.543 8.3914 11.4959 8.41123C11.4488 8.43105 11.3969 8.43646 11.3467 8.42677C11.2965 8.41708 11.2503 8.39272 11.2139 8.35678C11.1776 8.32084 11.1527 8.27492 11.1425 8.22485C11.1322 8.17477 11.137 8.12277 11.1563 8.07544C11.1756 8.0281 11.2085 7.98755 11.2509 7.95892C11.2932 7.93028 11.3431 7.91484 11.3942 7.91455C11.4627 7.9143 11.5285 7.9412 11.5772 7.98937C11.626 8.03754 11.6536 8.10305 11.6541 8.17156Z" fill="white"/>
<path d="M8.02319 5.21066C8.33382 5.23288 9.45701 5.59713 9.74686 5.79617C9.50532 5.09568 8.69228 5.00245 8.02319 5.21066Z" fill="#009345"/>
<path d="M8.31887 6.98219C8.31896 7.218 8.24913 7.44854 8.1182 7.64466C7.98727 7.84078 7.80113 7.99368 7.58331 8.084C7.36548 8.17433 7.12577 8.19804 6.89447 8.15213C6.66317 8.10622 6.45069 7.99275 6.28388 7.82608C6.11707 7.6594 6.00343 7.44701 5.95733 7.21575C5.91123 6.98449 5.93475 6.74475 6.0249 6.52686C6.11505 6.30896 6.26779 6.12269 6.46381 5.99161C6.65982 5.86052 6.89031 5.7905 7.12611 5.79041C7.44216 5.79041 7.74527 5.91589 7.96884 6.13927C8.1924 6.36266 8.31813 6.66567 8.31838 6.98171L8.31887 6.98219Z" fill="white"/>
<path d="M7.96514 6.99282C7.96514 7.15869 7.91595 7.32084 7.8238 7.45875C7.73165 7.59667 7.60067 7.70416 7.44742 7.76763C7.29418 7.83111 7.12556 7.84772 6.96288 7.81536C6.8002 7.783 6.65076 7.70312 6.53348 7.58584C6.41619 7.46855 6.33632 7.31912 6.30396 7.15643C6.2716 6.99375 6.28821 6.82513 6.35168 6.67189C6.41516 6.51864 6.52265 6.38766 6.66056 6.29551C6.79848 6.20336 6.96062 6.15417 7.12649 6.15417C7.34891 6.15417 7.56222 6.24253 7.7195 6.39981C7.87678 6.55709 7.96514 6.7704 7.96514 6.99282Z" fill="#58595B"/>
<path d="M12.6198 8.69725C11.6536 9.37793 10.555 9.89435 8.99657 9.89435C8.2671 9.89435 8.11928 9.1214 7.63715 9.49918C7.38836 9.69532 6.51106 10.134 5.81493 10.1006C5.11879 10.0673 3.99029 9.65957 3.6758 8.1731C3.55116 9.65957 3.48739 10.7538 2.92749 12.0084C4.0386 13.7876 6.68788 15.1601 9.0927 14.5687C8.83618 12.7644 10.4154 10.9973 11.3014 10.0944C11.6396 9.75184 12.2821 9.1929 12.6198 8.69773V8.69725Z" fill="#8BC53F"/>
<path d="M12.5821 8.74166C12.2821 9.01509 11.9251 9.21751 11.5618 9.39625C11.194 9.57067 10.8107 9.71025 10.4169 9.81316C10.0227 9.91509 9.61157 9.9919 9.19514 9.95422C8.77872 9.91654 8.35312 9.77499 8.07727 9.46292L8.09031 9.44794C8.42848 9.66726 8.81882 9.74456 9.20722 9.75567C9.60092 9.76777 9.99472 9.73536 10.3811 9.65905C10.7715 9.57723 11.1533 9.45917 11.5217 9.30639C11.8903 9.15422 12.255 8.97789 12.5691 8.72668L12.5821 8.74166Z" fill="#58595B"/>
</svg>
