<svg xmlns="http://www.w3.org/2000/svg" width="24" height="24" viewBox="0 0 24 24">
    <g fill="none" fill-rule="evenodd">
        <g fill="#F6BF00">
            <g>
                <path d="M17.98 19.2H6.02c-.404 0-.767-.245-.918-.618l-3.83-9.484c-.161-.399-.045-.856.287-1.13.333-.273.804-.302 1.167-.069l5.811 3.731 2.546-6.216c.153-.371.515-.614.917-.614s.764.243.916.614l2.547 6.216 5.811-3.73c.363-.234.834-.205 1.167.069.332.273.448.73.287 1.129l-3.83 9.484c-.151.373-.515.618-.918.618" transform="translate(-230 -2436) translate(230 2436)"/>
            </g>
        </g>
    </g>
</svg>
